<svg xmlns="http://www.w3.org/2000/svg" width="240" height="64" viewBox="0 0 240 64">
  <defs>
    <linearGradient id="citadelGradient" x1="0%" y1="0%" x2="100%" y2="100%">
      <stop offset="0%" stop-color="#4f46e5"/>
      <stop offset="50%" stop-color="#22d3ee"/>
      <stop offset="100%" stop-color="#f472b6"/>
    </linearGradient>
    <filter id="citadelGlow" x="-50%" y="-50%" width="200%" height="200%">
      <feGaussianBlur stdDeviation="4" result="blur"/>
      <feMerge>
        <feMergeNode in="blur"/>
        <feMergeNode in="SourceGraphic"/>
      </feMerge>
    </filter>
  </defs>
  <rect x="0" y="8" width="62" height="48" rx="14" fill="#0f172a" stroke="url(#citadelGradient)" stroke-width="2.5"/>
  <path d="M18 44c1.4 0 2.6-1.2 2.6-2.6V23.8c0-1.4-1.2-2.6-2.6-2.6h-1.1c-1.4 0-2.6 1.2-2.6 2.6v17.6c0 1.4 1.2 2.6 2.6 2.6H18z" fill="url(#citadelGradient)"/>
  <path d="M28.8 44h-1.4c-1.1 0-2-0.9-2-2V21.7c0-1.1 0.9-2 2-2h1.4c1.1 0 2 0.9 2 2V42c0 1.1-0.9 2-2 2z" fill="url(#citadelGradient)" opacity="0.75"/>
  <path d="M38.5 44h-1.2c-1.3 0-2.3-1-2.3-2.3V27.5c0-1.3 1-2.3 2.3-2.3h1.2c1.3 0 2.3 1 2.3 2.3v14.2c0 1.3-1 2.3-2.3 2.3z" fill="url(#citadelGradient)" opacity="0.55"/>
  <path d="M48.2 44h-1c-1.5 0-2.8-1.3-2.8-2.8V31.6c0-1.5 1.3-2.8 2.8-2.8h1c1.5 0 2.8 1.3 2.8 2.8v9.6C51 42.7 49.7 44 48.2 44z" fill="url(#citadelGradient)" opacity="0.4"/>
  <g filter="url(#citadelGlow)">
    <text x="78" y="40" font-family="'Inter', 'Segoe UI', sans-serif" font-size="30" font-weight="700" fill="url(#citadelGradient)">Citadel</text>
    <text x="194" y="40" font-family="'Inter', 'Segoe UI', sans-serif" font-size="30" font-weight="500" fill="#e2e8f0">GSM</text>
  </g>
  <circle cx="54" cy="20" r="4" fill="rgba(99, 102, 241, 0.75)">
    <animate attributeName="r" from="3" to="5.5" dur="2.2s" repeatCount="indefinite"/>
    <animate attributeName="opacity" values="0.8;0.4;0.8" dur="2.2s" repeatCount="indefinite"/>
  </circle>
</svg>
