<svg xmlns="http://www.w3.org/2000/svg" width="64" height="64" viewBox="0 0 64 64">
  <defs>
    <linearGradient id="citadelFavicon" x1="0%" y1="0%" x2="100%" y2="100%">
      <stop offset="0%" stop-color="#22d3ee"/>
      <stop offset="60%" stop-color="#6366f1"/>
      <stop offset="100%" stop-color="#f472b6"/>
    </linearGradient>
  </defs>
  <rect x="2" y="2" width="60" height="60" rx="18" fill="#0b1220" stroke="rgba(148,163,184,0.35)" stroke-width="2"/>
  <path d="M20 46c1.5 0 2.5-1.1 2.5-2.5v-23c0-1.4-1-2.5-2.5-2.5s-2.5 1.1-2.5 2.5v23c0 1.4 1 2.5 2.5 2.5z" fill="url(#citadelFavicon)"/>
  <path d="M28 46c1.3 0 2.3-1 2.3-2.3V21.3c0-1.3-1-2.3-2.3-2.3-1.3 0-2.3 1-2.3 2.3v22.4c0 1.3 1 2.3 2.3 2.3z" fill="url(#citadelFavicon)" opacity="0.8"/>
  <path d="M36 46c1.2 0 2.2-1 2.2-2.2V28.2c0-1.2-1-2.2-2.2-2.2-1.2 0-2.2 1-2.2 2.2v15.6c0 1.2 1 2.2 2.2 2.2z" fill="url(#citadelFavicon)" opacity="0.6"/>
  <path d="M44 46c1 0 1.8-0.8 1.8-1.8V33.6c0-1-0.8-1.8-1.8-1.8-1 0-1.8 0.8-1.8 1.8v10.6c0 1 0.8 1.8 1.8 1.8z" fill="url(#citadelFavicon)" opacity="0.45"/>
</svg>
