<svg xmlns="http://www.w3.org/2000/svg" width="120" height="120" viewBox="0 0 120 120">
  <defs>
    <linearGradient id="citadelOrb" x1="0%" y1="0%" x2="100%" y2="100%">
      <stop offset="0%" stop-color="#22d3ee"/>
      <stop offset="45%" stop-color="#6366f1"/>
      <stop offset="100%" stop-color="#f472b6"/>
    </linearGradient>
    <linearGradient id="citadelTail" x1="0%" y1="0%" x2="100%" y2="0%">
      <stop offset="0%" stop-color="#1e293b" stop-opacity="0"/>
      <stop offset="100%" stop-color="#22d3ee" stop-opacity="0.65"/>
    </linearGradient>
  </defs>
  <rect x="6" y="6" width="108" height="108" rx="30" fill="#0b1220" stroke="rgba(148,163,184,0.25)" stroke-width="2"/>
  <path d="M100 70c-20 18-40 26-62 20-12-3-18-8-18-16 0-6 4-11 9-13 3-1 6 0 6 0-6-24 8-38 26-38 17 0 32 12 34 30 10-2 17 6 15 15-1 5-4 8-10 10z" fill="url(#citadelTail)"/>
  <circle cx="62" cy="54" r="26" fill="#111b2f" stroke="url(#citadelOrb)" stroke-width="4"/>
  <path d="M62 34c6 0 11 5 11 11v18c0 6-5 11-11 11s-11-5-11-11V45c0-6 5-11 11-11z" fill="url(#citadelOrb)" opacity="0.8"/>
  <path d="M72 52c3 0 6 2 6 6v5c0 4-3 6-6 6h-4c-3 0-6-2-6-6v-5c0-4 3-6 6-6h4z" fill="url(#citadelOrb)" opacity="0.45"/>
  <circle cx="76" cy="36" r="5" fill="#22d3ee">
    <animate attributeName="r" values="5;7;5" dur="3s" repeatCount="indefinite"/>
    <animate attributeName="opacity" values="0.9;0.4;0.9" dur="3s" repeatCount="indefinite"/>
  </circle>
</svg>
